<svg width="72" height="67" viewBox="0 0 72 67" fill="none" xmlns="http://www.w3.org/2000/svg">
<path d="M34.2038 2.92266L34.2037 2.92286L29.882 12.2896C29.1521 13.8727 28.3617 15.4691 27.6744 16.7687C27.0022 18.0396 26.3918 19.0982 26.028 19.5481L34.2038 2.92266ZM34.2038 2.92266C34.8827 1.45013 35.6692 0.981406 36.23 0.972298C36.7911 0.963186 37.5934 1.40642 38.3217 2.8572L38.9217 2.556L38.3217 2.8572L43.1128 12.3998L43.1129 12.4001C44.6673 15.493 46.2503 18.6483 46.633 19.4132L46.6347 19.4165C46.9049 19.9498 47.3884 20.4134 47.9026 20.755C48.4224 21.1002 49.0476 21.3703 49.6679 21.4582M34.2038 2.92266L49.6679 21.4582M49.6679 21.4582C50.0835 21.5183 50.9818 21.6464 52.1438 21.8122C53.715 22.0364 55.7682 22.3293 57.7621 22.6157L57.7629 22.6158L68.0432 24.0806L49.6679 21.4582ZM69.3176 28.0068C70.5138 26.8958 70.7063 26.0048 70.5359 25.475C70.3639 24.9399 69.6767 24.3154 68.044 24.0807L69.3176 28.0068ZM69.3176 28.0068L61.5776 35.1901C59.0354 37.5479 56.4296 40.0956 55.8054 40.8423L55.8052 40.8426C55.4336 41.2876 55.1515 41.8717 54.977 42.4434C54.804 43.0099 54.7121 43.6446 54.7938 44.2006M69.3176 28.0068L16.1408 51.9042L14.3023 62.4473L14.3023 62.4475C14.0265 64.0272 14.4132 64.8754 14.8994 65.2228C15.3924 65.575 16.3464 65.6722 17.7961 64.9225L17.7965 64.9223L26.3121 60.5245C26.3122 60.5245 26.3124 60.5244 26.3125 60.5243C27.652 59.8316 29.0482 59.1098 30.2881 58.4689C31.9234 57.6236 33.2867 56.9188 33.8892 56.6067L33.89 56.6063C34.5346 56.2734 35.3077 56.0981 36.0354 56.0648C36.7538 56.0318 37.5174 56.1335 38.1171 56.4431C39.0046 56.9011 42.2731 58.5888 45.3821 60.195L45.3822 60.195L54.5301 64.9224L54.5303 64.9225C55.9817 65.6731 56.9309 65.5747 57.4178 65.2253C57.898 64.8807 58.2812 64.0352 57.9991 62.4534C57.9991 62.4534 57.9991 62.4533 57.9991 62.4533L56.1159 51.9038L56.1159 51.9037C55.5107 48.5106 54.9146 45.0439 54.7938 44.2006M54.7938 44.2006C54.7937 44.2002 54.7936 44.1997 54.7936 44.1992L55.5312 44.0936L54.794 44.2024C54.794 44.2018 54.7939 44.2012 54.7938 44.2006Z" stroke="#FF3F98" stroke-width="1.49117"/>
</svg>
