<svg width="18" height="17" viewBox="0 0 18 17" fill="none" xmlns="http://www.w3.org/2000/svg">
<path fill-rule="evenodd" clip-rule="evenodd" d="M8.27418 1.33193C8.60981 0.603928 9.17904 0.594483 9.53907 1.31158L10.6487 3.52173C11.0087 4.2381 11.3754 4.969 11.4641 5.14628C11.5536 5.32283 11.8108 5.4943 12.0371 5.52626C12.2633 5.55896 13.1075 5.67884 13.9118 5.79436L16.293 6.13365C17.0973 6.24917 17.2718 6.7919 16.6811 7.34044L14.8884 9.00423C14.297 9.55277 13.7026 10.1347 13.5666 10.2975C13.4313 10.4595 13.3426 10.7494 13.3707 10.9397C13.3981 11.1308 13.5356 11.9307 13.676 12.7183L14.1122 15.1617C14.2526 15.9493 13.7788 16.2893 13.0595 15.9173L10.9407 14.8224C10.2207 14.4504 9.46366 14.0595 9.25815 13.9534C9.05263 13.8474 8.68374 13.8641 8.43756 13.9912C8.19212 14.1184 7.40184 14.5267 6.68254 14.8987L4.71017 15.9173C3.99086 16.2893 3.51403 15.9485 3.65153 15.161L4.07735 12.719C4.21486 11.9315 4.35458 11.1308 4.38785 10.9397C4.42111 10.7494 4.28139 10.4595 4.07735 10.2975C3.87332 10.1347 3.23754 9.53751 2.66535 8.97008L1.05448 7.37459C0.481552 6.80716 0.672283 6.25208 1.47735 6.14019L4.02782 5.78782C4.83362 5.67593 5.63869 5.55896 5.81759 5.52626C5.99649 5.4943 6.26041 5.32283 6.40309 5.14628C6.54651 4.969 6.93758 4.22938 7.27321 3.50139L8.27418 1.33193Z" fill="url(#paint0_linear_4_2107)"/>
<defs>
<linearGradient id="paint0_linear_4_2107" x1="0.738247" y1="8.47574" x2="17.0632" y2="8.37002" gradientUnits="userSpaceOnUse">
<stop stop-color="#CE3381"/>
<stop offset="0.9982" stop-color="#FF3F98"/>
</linearGradient>
</defs>
</svg>
