<svg width="41" height="39" viewBox="0 0 41 39" fill="none" xmlns="http://www.w3.org/2000/svg">
<path fill-rule="evenodd" clip-rule="evenodd" d="M18.984 1.91579C19.8232 0.0954226 21.2466 0.0718049 22.1469 1.86493L24.9216 7.39144C25.8218 9.18275 26.7387 11.0104 26.9605 11.4537C27.1842 11.8951 27.8275 12.3239 28.3932 12.4038C28.9588 12.4856 31.0699 12.7853 33.0811 13.0742L39.0353 13.9226C41.0465 14.2115 41.4828 15.5686 40.0058 16.9402L35.523 21.1005C34.0442 22.4722 32.5579 23.9274 32.2178 24.3343C31.8795 24.7395 31.6577 25.4644 31.7279 25.9403C31.7963 26.4181 32.1402 28.4184 32.4914 30.3877L33.5821 36.4974C33.9333 38.4668 32.7484 39.317 30.9497 38.3868L25.6517 35.649C23.8512 34.7188 21.9583 33.7414 21.4444 33.4762C20.9305 33.2109 20.0081 33.2527 19.3925 33.5706C18.7788 33.8886 16.8027 34.9096 15.0041 35.8397L10.0721 38.3868C8.27347 39.317 7.08115 38.4649 7.42498 36.4956L8.48975 30.3895C8.83358 28.4202 9.18296 26.4181 9.26614 25.9403C9.34933 25.4644 8.99995 24.7395 8.48975 24.3343C7.97955 23.9274 6.38979 22.434 4.959 21.0152L0.931001 17.0256C-0.50163 15.6067 -0.0247028 14.2187 1.98838 13.939L8.36589 13.0578C10.3808 12.7781 12.3939 12.4856 12.8412 12.4038C13.2886 12.3239 13.9485 11.8951 14.3053 11.4537C14.6639 11.0104 15.6418 9.16095 16.4811 7.34057L18.984 1.91579Z" fill="url(#paint0_linear_4_2109)"/>
<defs>
<linearGradient id="paint0_linear_4_2109" x1="0.140243" y1="19.7791" x2="40.9612" y2="19.5147" gradientUnits="userSpaceOnUse">
<stop stop-color="#CE3381"/>
<stop offset="0.9982" stop-color="#FF3F98"/>
</linearGradient>
</defs>
</svg>
