<svg width="17" height="17" viewBox="0 0 17 17" fill="none" xmlns="http://www.w3.org/2000/svg">
<g filter="url(#filter0_ii_4_2111)">
<path fill-rule="evenodd" clip-rule="evenodd" d="M7.88899 1.33193C8.22462 0.603928 8.79385 0.594483 9.15388 1.31158L10.2635 3.52173C10.6235 4.2381 10.9902 4.969 11.0789 5.14628C11.1684 5.32283 11.4256 5.4943 11.6519 5.52626C11.8781 5.55896 12.7223 5.67884 13.5266 5.79436L15.9078 6.13365C16.7122 6.24917 16.8866 6.7919 16.2959 7.34044L14.5032 9.00423C13.9118 9.55277 13.3174 10.1347 13.1814 10.2975C13.0461 10.4595 12.9574 10.7494 12.9855 10.9397C13.0129 11.1308 13.1504 11.9307 13.2908 12.7183L13.727 15.1617C13.8675 15.9493 13.3936 16.2893 12.6743 15.9173L10.5555 14.8224C9.83548 14.4504 9.07847 14.0595 8.87295 13.9534C8.66744 13.8474 8.29854 13.8641 8.05237 13.9912C7.80693 14.1184 7.01665 14.5267 6.29734 14.8987L4.32497 15.9173C3.60567 16.2893 3.12884 15.9485 3.26634 15.161L3.69216 12.719C3.82966 11.9315 3.96939 11.1308 4.00265 10.9397C4.03592 10.7494 3.8962 10.4595 3.69216 10.2975C3.48812 10.1347 2.85235 9.53751 2.28016 8.97008L0.669292 7.37459C0.0963588 6.80716 0.28709 6.25208 1.09215 6.14019L3.64263 5.78782C4.44843 5.67593 5.2535 5.55896 5.4324 5.52626C5.6113 5.4943 5.87522 5.32283 6.0179 5.14628C6.16132 4.969 6.55239 4.22938 6.88802 3.50139L7.88899 1.33193Z" fill="#F2F6FB"/>
<path fill-rule="evenodd" clip-rule="evenodd" d="M7.88899 1.33193C8.22462 0.603928 8.79385 0.594483 9.15388 1.31158L10.2635 3.52173C10.6235 4.2381 10.9902 4.969 11.0789 5.14628C11.1684 5.32283 11.4256 5.4943 11.6519 5.52626C11.8781 5.55896 12.7223 5.67884 13.5266 5.79436L15.9078 6.13365C16.7122 6.24917 16.8866 6.7919 16.2959 7.34044L14.5032 9.00423C13.9118 9.55277 13.3174 10.1347 13.1814 10.2975C13.0461 10.4595 12.9574 10.7494 12.9855 10.9397C13.0129 11.1308 13.1504 11.9307 13.2908 12.7183L13.727 15.1617C13.8675 15.9493 13.3936 16.2893 12.6743 15.9173L10.5555 14.8224C9.83548 14.4504 9.07847 14.0595 8.87295 13.9534C8.66744 13.8474 8.29854 13.8641 8.05237 13.9912C7.80693 14.1184 7.01665 14.5267 6.29734 14.8987L4.32497 15.9173C3.60567 16.2893 3.12884 15.9485 3.26634 15.161L3.69216 12.719C3.82966 11.9315 3.96939 11.1308 4.00265 10.9397C4.03592 10.7494 3.8962 10.4595 3.69216 10.2975C3.48812 10.1347 2.85235 9.53751 2.28016 8.97008L0.669292 7.37459C0.0963588 6.80716 0.28709 6.25208 1.09215 6.14019L3.64263 5.78782C4.44843 5.67593 5.2535 5.55896 5.4324 5.52626C5.6113 5.4943 5.87522 5.32283 6.0179 5.14628C6.16132 4.969 6.55239 4.22938 6.88802 3.50139L7.88899 1.33193Z" fill="url(#paint0_linear_4_2111)" fill-opacity="0.4" style="mix-blend-mode:soft-light"/>
</g>
<path d="M8.11853 1.43775L8.11849 1.43782L7.11756 3.60721C7.11755 3.60723 7.11754 3.60725 7.11753 3.60728C6.94792 3.97516 6.76423 4.34617 6.60431 4.64853C6.44953 4.94117 6.30459 5.19373 6.21449 5.30515C6.21446 5.30519 6.21443 5.30522 6.2144 5.30525L6.0179 5.14628C5.87522 5.32283 5.6113 5.4943 5.4324 5.52626L8.11853 1.43775ZM8.11853 1.43775C8.27085 1.10734 8.43259 1.03393 8.51639 1.03257C8.60027 1.03121 8.76454 1.09943 8.92799 1.42499L10.0376 3.63514L10.0377 3.63523C10.3977 4.35157 10.7643 5.08232 10.8529 5.25939L10.8535 5.26052C10.9243 5.40038 11.0481 5.51721 11.1743 5.60103C11.3023 5.68605 11.458 5.75398 11.6157 5.77642C11.7119 5.79032 11.9201 5.82003 12.1895 5.85846C12.5535 5.91039 13.0291 5.97825 13.4907 6.04455L13.491 6.04459L15.8719 6.38384C16.2391 6.43659 16.3587 6.57201 16.3844 6.65204C16.4095 6.73023 16.3925 6.90578 16.124 7.15518C16.124 7.1552 16.124 7.15521 16.1239 7.15523L14.3313 8.81891L8.11853 1.43775ZM4.25164 10.9833C4.2809 10.8158 4.23241 10.6397 4.164 10.4981C4.09316 10.3514 3.98459 10.207 3.84956 10.0997C3.65774 9.94664 3.0318 9.3595 2.45814 8.79061L2.45803 8.7905L0.84716 7.19501L0.847155 7.195C0.589498 6.93982 0.5727 6.75711 0.603067 6.66855C0.634091 6.57807 0.76315 6.44111 1.12695 6.39054L3.67722 6.0382L3.67739 6.03818C4.47958 5.92679 5.29079 5.80903 5.47735 5.77499L4.00265 10.9397M4.25164 10.9833L4.00265 10.9397M4.25164 10.9833L4.25167 10.9831L4.00265 10.9397M4.25164 10.9833L3.94116 12.7625L3.69216 12.719M4.00265 10.9397L3.69216 12.719M3.69216 12.719L3.94115 12.7625M3.69216 12.719L3.94115 12.7625M3.94115 12.7625L3.51534 15.2044L3.51533 15.2044C3.45371 15.5574 3.54546 15.7141 3.6213 15.7683C3.69941 15.8241 3.88418 15.8607 4.20887 15.6928L4.20899 15.6927L6.18124 14.6742M3.94115 12.7625L3.26634 15.161C3.12884 15.9485 3.60567 16.2893 4.32497 15.9173L6.29734 14.8987M6.18124 14.6742L6.29734 14.8987M6.18124 14.6742C6.49129 14.5138 6.81442 14.3468 7.10143 14.1984C7.48046 14.0025 7.79648 13.8391 7.9361 13.7668L7.93638 13.7667C8.09781 13.6833 8.28859 13.6405 8.46634 13.6324C8.64095 13.6244 8.83322 13.6485 8.98888 13.7288C9.19443 13.8349 9.95147 14.2258 10.6715 14.5978L10.6716 14.5978L12.7903 15.6927L12.7904 15.6928C13.1156 15.861 13.2991 15.8239 13.3757 15.769C13.45 15.7156 13.5412 15.5597 13.4782 15.2061C13.4782 15.2061 13.4782 15.2061 13.4782 15.2061M6.18124 14.6742L6.18136 14.6741L6.29734 14.8987M6.29734 14.8987C6.60747 14.7383 6.93078 14.5712 7.21794 14.4227C7.59682 14.2269 7.91275 14.0636 8.05237 13.9912C8.29854 13.8641 8.66744 13.8474 8.87295 13.9534C9.07847 14.0595 9.83548 14.4504 10.5555 14.8224L12.6743 15.9173C13.3936 16.2893 13.8675 15.9493 13.727 15.1617L13.2908 12.7183M12.9855 10.9397C13.0129 11.1308 13.1504 11.9307 13.2908 12.7183M12.9855 10.9397C12.9574 10.7494 13.0461 10.4595 13.1814 10.2975L13.2908 12.7183M12.9855 10.9397L12.7353 10.9756M12.9855 10.9397L12.7355 10.9766C12.7354 10.9763 12.7353 10.9759 12.7353 10.9756M13.2908 12.7183L13.4782 15.2061M12.7353 10.9756C12.7634 11.172 12.9019 11.977 13.042 12.7627L13.042 12.7627L13.4782 15.2061M12.7353 10.9756C12.7143 10.8313 12.7383 10.6721 12.7804 10.5342C12.8231 10.3944 12.8928 10.2488 12.9874 10.1355L12.9875 10.1354C13.136 9.95769 13.7437 9.36393 14.3313 8.81896L13.4782 15.2061" stroke="white" stroke-opacity="0.4" stroke-width="0.505517"/>
<defs>
<filter id="filter0_ii_4_2111" x="-2.18902" y="-1.7478" width="21.3627" height="20.3437" filterUnits="userSpaceOnUse" color-interpolation-filters="sRGB">
<feFlood flood-opacity="0" result="BackgroundImageFix"/>
<feBlend mode="normal" in="SourceGraphic" in2="BackgroundImageFix" result="shape"/>
<feColorMatrix in="SourceAlpha" type="matrix" values="0 0 0 0 0 0 0 0 0 0 0 0 0 0 0 0 0 0 127 0" result="hardAlpha"/>
<feOffset dx="2.52758" dy="2.52758"/>
<feGaussianBlur stdDeviation="2.52758"/>
<feComposite in2="hardAlpha" operator="arithmetic" k2="-1" k3="1"/>
<feColorMatrix type="matrix" values="0 0 0 0 0.65098 0 0 0 0 0.670588 0 0 0 0 0.741176 0 0 0 0.5 0"/>
<feBlend mode="normal" in2="shape" result="effect1_innerShadow_4_2111"/>
<feColorMatrix in="SourceAlpha" type="matrix" values="0 0 0 0 0 0 0 0 0 0 0 0 0 0 0 0 0 0 127 0" result="hardAlpha"/>
<feOffset dx="-2.52758" dy="-2.52758"/>
<feGaussianBlur stdDeviation="2.52758"/>
<feComposite in2="hardAlpha" operator="arithmetic" k2="-1" k3="1"/>
<feColorMatrix type="matrix" values="0 0 0 0 0.894323 0 0 0 0 0.907958 0 0 0 0 0.9625 0 0 0 1 0"/>
<feBlend mode="normal" in2="effect1_innerShadow_4_2111" result="effect2_innerShadow_4_2111"/>
</filter>
<linearGradient id="paint0_linear_4_2111" x1="25.6072" y1="8.42397" x2="10.4427" y2="-9.35313" gradientUnits="userSpaceOnUse">
<stop/>
<stop offset="1" stop-color="white"/>
</linearGradient>
</defs>
</svg>
