<svg width="28" height="27" viewBox="0 0 28 27" fill="none" xmlns="http://www.w3.org/2000/svg">
<path fill-rule="evenodd" clip-rule="evenodd" d="M12.7257 1.89471C13.2879 0.67512 14.2415 0.659297 14.8447 1.86063L16.7036 5.56321C17.3068 6.76332 17.921 7.98778 18.0697 8.28476C18.2195 8.58053 18.6505 8.86778 19.0295 8.92133C19.4084 8.97611 20.8228 9.17694 22.1702 9.37046L26.1593 9.93887C27.5068 10.1324 27.7991 11.0416 26.8095 11.9606L23.8062 14.7478C22.8155 15.6668 21.8197 16.6417 21.5919 16.9144C21.3652 17.1858 21.2166 17.6714 21.2637 17.9903C21.3095 18.3105 21.5398 19.6505 21.7752 20.9699L22.5059 25.0632C22.7412 26.3826 21.9473 26.9522 20.7423 26.3291L17.1928 24.4948C15.9865 23.8716 14.7184 23.2168 14.3741 23.0391C14.0298 22.8614 13.4118 22.8894 12.9994 23.1024C12.5882 23.3154 11.2643 23.9994 10.0592 24.6226L6.75499 26.3291C5.54996 26.9522 4.75114 26.3814 4.9815 25.062L5.69486 20.9712C5.92521 19.6518 6.15928 18.3105 6.21501 17.9903C6.27074 17.6714 6.03667 17.1858 5.69486 16.9144C5.35304 16.6417 4.28795 15.6412 3.32938 14.6906L0.630751 12.0178C-0.329064 11.0672 -0.00953847 10.1373 1.33916 9.94983L5.61188 9.35951C6.96181 9.17207 8.31051 8.97611 8.61022 8.92133C8.90993 8.86778 9.35206 8.58053 9.59108 8.28476C9.83135 7.98778 10.4865 6.74871 11.0488 5.52913L12.7257 1.89471Z" fill="url(#paint0_linear_4_2478)"/>
<defs>
<linearGradient id="paint0_linear_4_2478" x1="0.10097" y1="13.8625" x2="27.4496" y2="13.6854" gradientUnits="userSpaceOnUse">
<stop stop-color="#CE3381"/>
<stop offset="0.9982" stop-color="#FF3F98"/>
</linearGradient>
</defs>
</svg>
