<svg width="28" height="27" viewBox="0 0 28 27" fill="none" xmlns="http://www.w3.org/2000/svg">
<g filter="url(#filter0_ii_4_2482)">
<path fill-rule="evenodd" clip-rule="evenodd" d="M13.1532 1.89471C13.7154 0.67512 14.6691 0.659297 15.2722 1.86063L17.1311 5.56321C17.7343 6.76332 18.3486 7.98778 18.4972 8.28476C18.647 8.58053 19.078 8.86778 19.457 8.92133C19.836 8.97611 21.2503 9.17694 22.5977 9.37046L26.5869 9.93887C27.9343 10.1324 28.2266 11.0416 27.2371 11.9606L24.2338 14.7478C23.243 15.6668 22.2473 16.6417 22.0194 16.9144C21.7927 17.1858 21.6441 17.6714 21.6912 17.9903C21.737 18.3105 21.9674 19.6505 22.2027 20.9699L22.9334 25.0632C23.1687 26.3826 22.3748 26.9522 21.1698 26.3291L17.6203 24.4948C16.4141 23.8716 15.1459 23.2168 14.8016 23.0391C14.4573 22.8614 13.8393 22.8894 13.4269 23.1024C13.0157 23.3154 11.6918 23.9994 10.4867 24.6226L7.18251 26.3291C5.97748 26.9522 5.17866 26.3814 5.40902 25.062L6.12238 20.9712C6.35273 19.6518 6.5868 18.3105 6.64253 17.9903C6.69827 17.6714 6.46419 17.1858 6.12238 16.9144C5.78056 16.6417 4.71547 15.6412 3.7569 14.6906L1.05827 12.0178C0.098457 11.0672 0.417982 10.1373 1.76668 9.94983L6.0394 9.35951C7.38933 9.17207 8.73803 8.97611 9.03774 8.92133C9.33745 8.86778 9.77958 8.58053 10.0186 8.28476C10.2589 7.98778 10.914 6.74871 11.4763 5.52913L13.1532 1.89471Z" fill="#F2F6FB"/>
<path fill-rule="evenodd" clip-rule="evenodd" d="M13.1532 1.89471C13.7154 0.67512 14.6691 0.659297 15.2722 1.86063L17.1311 5.56321C17.7343 6.76332 18.3486 7.98778 18.4972 8.28476C18.647 8.58053 19.078 8.86778 19.457 8.92133C19.836 8.97611 21.2503 9.17694 22.5977 9.37046L26.5869 9.93887C27.9343 10.1324 28.2266 11.0416 27.2371 11.9606L24.2338 14.7478C23.243 15.6668 22.2473 16.6417 22.0194 16.9144C21.7927 17.1858 21.6441 17.6714 21.6912 17.9903C21.737 18.3105 21.9674 19.6505 22.2027 20.9699L22.9334 25.0632C23.1687 26.3826 22.3748 26.9522 21.1698 26.3291L17.6203 24.4948C16.4141 23.8716 15.1459 23.2168 14.8016 23.0391C14.4573 22.8614 13.8393 22.8894 13.4269 23.1024C13.0157 23.3154 11.6918 23.9994 10.4867 24.6226L7.18251 26.3291C5.97748 26.9522 5.17866 26.3814 5.40902 25.062L6.12238 20.9712C6.35273 19.6518 6.5868 18.3105 6.64253 17.9903C6.69827 17.6714 6.46419 17.1858 6.12238 16.9144C5.78056 16.6417 4.71547 15.6412 3.7569 14.6906L1.05827 12.0178C0.098457 11.0672 0.417982 10.1373 1.76668 9.94983L6.0394 9.35951C7.38933 9.17207 8.73803 8.97611 9.03774 8.92133C9.33745 8.86778 9.77958 8.58053 10.0186 8.28476C10.2589 7.98778 10.914 6.74871 11.4763 5.52913L13.1532 1.89471Z" fill="url(#paint0_linear_4_2482)" fill-opacity="0.4" style="mix-blend-mode:soft-light"/>
</g>
<path d="M13.404 2.01033L13.4039 2.0104L11.7271 5.64475C11.7271 5.64477 11.727 5.6448 11.727 5.64482C11.4439 6.25886 11.1374 6.87801 10.8708 7.38203C10.6098 7.87544 10.3736 8.28495 10.2334 8.45834C10.2334 8.45838 10.2333 8.45841 10.2333 8.45845L10.0186 8.28476C9.77958 8.58053 9.33745 8.86778 9.03774 8.92133L13.404 2.01033ZM13.404 2.01033C13.6682 1.43723 13.9767 1.2496 14.2018 1.24594C14.4271 1.24228 14.7419 1.41991 15.0254 1.98453L15.2698 1.86181L15.0254 1.98454L16.8843 5.68712L16.8844 5.68721C17.4875 6.8873 18.1017 8.11158 18.2502 8.40835L18.2508 8.40957C18.3543 8.61382 18.54 8.79216 18.7384 8.92391C18.9387 9.05696 19.1793 9.16082 19.4175 9.19465C19.5786 9.21793 19.9272 9.26767 20.3783 9.33202C20.9879 9.419 21.7847 9.53268 22.5585 9.64381L22.5588 9.64386L26.5476 10.2122L13.404 2.01033ZM6.9146 18.0377L6.64253 17.9903L24.0459 14.5454C23.0593 15.4605 22.049 16.4483 21.8075 16.7373L21.8074 16.7374C21.6646 16.9084 21.5559 17.1333 21.4885 17.3539C21.4218 17.5724 21.3866 17.8164 21.4178 18.0295C21.4645 18.3554 21.6959 19.701 21.9308 21.0184L21.9308 21.0185L22.6615 25.1117C22.7713 25.7276 22.6231 26.0622 22.4307 26.2003C22.2358 26.3401 21.8616 26.3759 21.2966 26.0838L21.2966 26.0837L17.7471 24.2495L17.7471 24.2495C16.5408 23.6263 15.2726 22.9714 14.9282 22.7937C14.6983 22.675 14.4045 22.6357 14.1271 22.6484C13.8463 22.6612 13.5482 22.7289 13.3001 22.857L13.2999 22.8572C13.0661 22.9783 12.5372 23.2517 11.9027 23.5797C11.4216 23.8284 10.8797 24.1085 10.3599 24.3773L7.05579 26.0837L7.05565 26.0838C6.49134 26.3756 6.11522 26.3402 5.91804 26.1993C5.72335 26.0602 5.57367 25.7246 5.68106 25.1095L5.68107 25.1094L6.39442 21.0186C6.62472 19.6995 6.85877 18.3584 6.91457 18.0379C6.91458 18.0378 6.91459 18.0378 6.9146 18.0377ZM27.0491 11.7582L24.046 14.5454L26.5479 10.2123C27.1832 10.3036 27.4564 10.5474 27.5254 10.7622C27.5939 10.9751 27.5147 11.3258 27.0492 11.7582C27.0492 11.7582 27.0492 11.7582 27.0491 11.7582Z" stroke="white" stroke-opacity="0.4" stroke-width="0.55231"/>
<defs>
<filter id="filter0_ii_4_2482" x="-2.25734" y="-1.79182" width="32.8426" height="31.1349" filterUnits="userSpaceOnUse" color-interpolation-filters="sRGB">
<feFlood flood-opacity="0" result="BackgroundImageFix"/>
<feBlend mode="normal" in="SourceGraphic" in2="BackgroundImageFix" result="shape"/>
<feColorMatrix in="SourceAlpha" type="matrix" values="0 0 0 0 0 0 0 0 0 0 0 0 0 0 0 0 0 0 127 0" result="hardAlpha"/>
<feOffset dx="2.76155" dy="2.76155"/>
<feGaussianBlur stdDeviation="2.76155"/>
<feComposite in2="hardAlpha" operator="arithmetic" k2="-1" k3="1"/>
<feColorMatrix type="matrix" values="0 0 0 0 0.65098 0 0 0 0 0.670588 0 0 0 0 0.741176 0 0 0 0.5 0"/>
<feBlend mode="normal" in2="shape" result="effect1_innerShadow_4_2482"/>
<feColorMatrix in="SourceAlpha" type="matrix" values="0 0 0 0 0 0 0 0 0 0 0 0 0 0 0 0 0 0 127 0" result="hardAlpha"/>
<feOffset dx="-2.76155" dy="-2.76155"/>
<feGaussianBlur stdDeviation="2.76155"/>
<feComposite in2="hardAlpha" operator="arithmetic" k2="-1" k3="1"/>
<feColorMatrix type="matrix" values="0 0 0 0 0.894323 0 0 0 0 0.907958 0 0 0 0 0.9625 0 0 0 1 0"/>
<feBlend mode="normal" in2="effect1_innerShadow_4_2482" result="effect2_innerShadow_4_2482"/>
</filter>
<linearGradient id="paint0_linear_4_2482" x1="42.836" y1="13.7758" x2="17.4313" y2="-16.0056" gradientUnits="userSpaceOnUse">
<stop/>
<stop offset="1" stop-color="white"/>
</linearGradient>
</defs>
</svg>
